<?xml version="1.0" standalone="no"?>
<!DOCTYPE svg PUBLIC "-//W3C//DTD SVG 20010904//EN"
 "http://www.w3.org/TR/2001/REC-SVG-20010904/DTD/svg10.dtd">
<svg version="1.0" xmlns="http://www.w3.org/2000/svg"
 width="512.000000pt" height="512.000000pt" viewBox="0 0 512.000000 512.000000"
 preserveAspectRatio="xMidYMid meet">
<metadata>
Created by potrace 1.11, written by Peter Selinger 2001-2013
</metadata>
<g transform="translate(0.000000,512.000000) scale(0.100000,-0.100000)"
fill="#000000" stroke="none">
<path d="M2273 4019 c-32 -16 -58 -45 -118 -130 -42 -60 -75 -115 -72 -123 5
-12 315 -232 343 -243 13 -5 146 188 162 236 34 99 -19 200 -138 261 -51 26
-123 26 -177 -1z"/>
<path d="M2697 3794 c-4 -4 -7 -17 -7 -29 0 -15 -53 -140 -60 -140 0 0 26 0
58 0 54 0 76 -10 432 -187 519 -258 1016 -489 1115 -517 27 -8 119 -11 275 -9
l235 3 0 80 0 80 -240 5 -240 5 -120 54 c-283 127 -576 265 -950 451 -379 188
-475 227 -498 204z"/>
<path d="M1744 3297 c-138 -199 -446 -643 -684 -987 l-433 -625 -54 -175 c-29
-96 -74 -239 -98 -316 -47 -147 -51 -169 -36 -178 5 -3 126 87 271 199 144
113 266 205 270 205 4 0 19 -10 34 -21 73 -58 239 -86 409 -69 97 9 211 30
537 100 190 41 375 49 655 25 110 -9 340 -19 510 -22 446 -8 503 5 890 201
l200 101 268 3 268 3 -3 82 -3 82 -254 3 c-209 2 -264 0 -309 -14 -30 -8 -145
-60 -255 -115 -110 -55 -248 -117 -306 -137 l-106 -37 -340 1 c-187 0 -400 6
-473 12 -261 25 -440 32 -525 21 -45 -5 -215 -36 -377 -69 -220 -44 -332 -61
-438 -68 -207 -13 -253 1 -291 88 -43 101 -21 199 66 286 119 119 399 193 828
219 127 8 248 19 270 26 110 32 241 121 331 227 76 88 104 138 104 182 0 35
-10 47 -141 155 -173 144 -255 185 -370 185 l-56 0 -220 -317 c-213 -307 -221
-318 -259 -325 -21 -4 -49 -10 -61 -13 -13 -3 -23 -1 -23 4 0 8 137 207 670
975 127 182 150 220 139 231 -23 21 -338 235 -346 235 -4 0 -121 -163 -259
-363z m655 -728 c83 -71 83 -68 -11 -160 -40 -39 -86 -72 -136 -96 -74 -35
-83 -37 -234 -46 -87 -6 -161 -8 -164 -4 -16 15 90 129 169 181 116 77 291
185 299 186 4 0 39 -27 77 -61z m-1578 -1005 c60 -41 109 -77 109 -79 0 -2
-55 -47 -121 -99 l-122 -96 -29 18 c-61 36 -61 34 -13 187 24 77 44 141 45
143 1 11 38 -9 131 -74z"/>
<path d="M1488 3315 c-341 -143 -397 -199 -620 -620 -321 -606 -331 -625 -326
-674 5 -48 55 -162 73 -167 17 -5 107 136 101 158 -3 13 10 48 33 92 21 39 90
170 153 291 252 482 295 551 402 636 32 26 93 62 136 80 l78 32 87 124 c48 69
85 126 83 128 -2 1 -92 -35 -200 -80z"/>
</g>
</svg>
